REM MD5 c13966546037d854b50ed6c120eeead8
FILE "radicalgames@psygnosis v.3 (Europe) (En,Fr,De,Es,It,Fi).bin" BINARY
  TRACK 01 MODE2/2352
    INDEX 01 00:00:00
  TRACK 02 AUDIO
    INDEX 00 41:43:27
    INDEX 01 41:45:27
  TRACK 03 AUDIO
    INDEX 00 43:24:61
    INDEX 01 43:26:61
  TRACK 04 AUDIO
    INDEX 00 48:49:49
    INDEX 01 48:51:49
  TRACK 05 AUDIO
    INDEX 00 49:23:49
    INDEX 01 49:25:49
REM LEADOUT 52:35:66
